<svg width="39" height="39" viewBox="0 0 39 39" fill="none" xmlns="http://www.w3.org/2000/svg">
<path d="M38.9367 28.6913C37.447 22.3425 32.8095 13.4969 18.783 11.6282V6.02971C18.783 4.86262 18.0762 3.81104 16.9973 3.36611C15.9183 2.92032 14.6768 3.17017 13.8528 3.99671L1.11664 16.7962C-0.371317 18.2919 -0.372172 20.7082 1.11578 22.2038L13.8528 35.0033C14.6751 35.8299 15.9192 36.0797 16.9981 35.6339C18.0771 35.1882 18.7839 34.1366 18.7839 32.9703V27.5533C23.5694 27.5593 30.4685 28.189 35.3764 31.2437C36.1918 31.7519 37.2314 31.7185 38.0118 31.1572C38.7904 30.5994 39.1566 29.6257 38.9367 28.6913Z" fill="url(#paint0_linear_17_500)"/>
<defs>
<linearGradient id="paint0_linear_17_500" x1="19.5" y1="3.14777" x2="19.5" y2="35.8523" gradientUnits="userSpaceOnUse">
<stop stop-color="#AE68E6"/>
<stop offset="1" stop-color="#FFD0B1"/>
</linearGradient>
</defs>
</svg>
