<svg width="13" height="13" viewBox="0 0 13 13" fill="none" xmlns="http://www.w3.org/2000/svg">
<g clip-path="url(#clip0_192_53)">
<path d="M12.7926 11.7553H0.207447C0.0928808 11.7553 0 11.8482 0 11.9628C0 12.0773 0.0928808 12.1702 0.207447 12.1702H12.7926C12.9071 12.1702 13 12.0773 13 11.9628C13 11.8482 12.9071 11.7553 12.7926 11.7553Z" fill="#696969"/>
<path d="M12.7926 12.5851H0.207447C0.0928808 12.5851 0 12.678 0 12.7925C0 12.9071 0.0928808 13 0.207447 13H12.7926C12.9071 13 13 12.9071 13 12.7925C13 12.678 12.9071 12.5851 12.7926 12.5851Z" fill="#696969"/>
<path d="M12.7926 0.829787H12.1011V0.62234C12.1011 0.279168 11.8219 0 11.4787 0C11.1356 0 10.8564 0.279168 10.8564 0.62234V0.829787H8.78191V0.62234C8.78191 0.279168 8.50272 0 8.15957 0C7.81643 0 7.53723 0.279168 7.53723 0.62234V0.829787H5.46277V0.62234C5.46277 0.279168 5.1836 0 4.84043 0C4.49725 0 4.21809 0.279168 4.21809 0.62234V0.829787H2.14362V0.62234C2.14362 0.279168 1.86445 0 1.52128 0C1.1781 0 0.898936 0.279168 0.898936 0.62234V0.829787H0.207447C0.0928808 0.829787 0 0.922668 0 1.03723V11.133C0 11.2475 0.0928808 11.3404 0.207447 11.3404H12.7926C12.9071 11.3404 13 11.2475 13 11.133V1.03723C13 0.922668 12.9071 0.829787 12.7926 0.829787ZM11.2713 0.62234C11.2713 0.50794 11.3643 0.414894 11.4787 0.414894C11.5931 0.414894 11.6862 0.50794 11.6862 0.62234V1.45213C11.6862 1.56653 11.5931 1.65957 11.4787 1.65957C11.3643 1.65957 11.2713 1.56653 11.2713 1.45213V0.62234ZM7.95213 0.62234C7.95213 0.50794 8.04517 0.414894 8.15957 0.414894C8.27397 0.414894 8.36702 0.50794 8.36702 0.62234V1.45213C8.36702 1.56653 8.27397 1.65957 8.15957 1.65957C8.04517 1.65957 7.95213 1.56653 7.95213 1.45213V0.62234ZM4.63298 0.62234C4.63298 0.50794 4.72603 0.414894 4.84043 0.414894C4.95483 0.414894 5.04787 0.50794 5.04787 0.62234V1.45213C5.04787 1.56653 4.95483 1.65957 4.84043 1.65957C4.72603 1.65957 4.63298 1.56653 4.63298 1.45213V0.62234ZM1.31383 0.62234C1.31383 0.50794 1.40688 0.414894 1.52128 0.414894C1.63568 0.414894 1.72872 0.50794 1.72872 0.62234V1.45213C1.72872 1.56653 1.63568 1.65957 1.52128 1.65957C1.40688 1.65957 1.31383 1.56653 1.31383 1.45213V0.62234ZM0.898936 1.24468V1.45213C0.898936 1.7953 1.1781 2.07447 1.52128 2.07447C1.86445 2.07447 2.14362 1.7953 2.14362 1.45213V1.24468H4.21809V1.45213C4.21809 1.7953 4.49725 2.07447 4.84043 2.07447C5.1836 2.07447 5.46277 1.7953 5.46277 1.45213V1.24468H7.53723V1.45213C7.53723 1.7953 7.81643 2.07447 8.15957 2.07447C8.50272 2.07447 8.78191 1.7953 8.78191 1.45213V1.24468H10.8564V1.45213C10.8564 1.7953 11.1356 2.07447 11.4787 2.07447C11.8219 2.07447 12.1011 1.7953 12.1011 1.45213V1.24468H12.5851V3.38277H0.414894V1.24468H0.898936ZM0.414894 10.9255V3.79766H12.5851V10.9255H0.414894Z" fill="#696969"/>
<path d="M11.3958 6.27319H10.566C10.4514 6.27319 10.3585 6.36607 10.3585 6.48064C10.3585 6.59521 10.4514 6.68809 10.566 6.68809H11.3958C11.5103 6.68809 11.6032 6.59521 11.6032 6.48064C11.6032 6.36607 11.5103 6.27319 11.3958 6.27319Z" fill="#696969"/>
<path d="M9.15528 6.27319H8.32549C8.2109 6.27319 8.11804 6.36607 8.11804 6.48064C8.11804 6.59521 8.2109 6.68809 8.32549 6.68809H9.15528C9.26987 6.68809 9.36272 6.59521 9.36272 6.48064C9.36272 6.36607 9.26987 6.27319 9.15528 6.27319Z" fill="#696969"/>
<path d="M6.91492 6.27319H6.08513C5.97057 6.27319 5.87769 6.36607 5.87769 6.48064C5.87769 6.59521 5.97057 6.68809 6.08513 6.68809H6.91492C7.02951 6.68809 7.12237 6.59521 7.12237 6.48064C7.12237 6.36607 7.02951 6.27319 6.91492 6.27319Z" fill="#696969"/>
<path d="M4.67444 6.27319H3.84465C3.73009 6.27319 3.63721 6.36607 3.63721 6.48064C3.63721 6.59521 3.73009 6.68809 3.84465 6.68809H4.67444C4.78901 6.68809 4.88189 6.59521 4.88189 6.48064C4.88189 6.36607 4.78901 6.27319 4.67444 6.27319Z" fill="#696969"/>
<path d="M2.43408 6.27319H1.6043C1.48973 6.27319 1.39685 6.36607 1.39685 6.48064C1.39685 6.59521 1.48973 6.68809 1.6043 6.68809H2.43408C2.54865 6.68809 2.64153 6.59521 2.64153 6.48064C2.64153 6.36607 2.54865 6.27319 2.43408 6.27319Z" fill="#696969"/>
<path d="M9.15528 7.76678H8.32549C8.2109 7.76678 8.11804 7.85967 8.11804 7.97423C8.11804 8.0888 8.2109 8.18168 8.32549 8.18168H9.15528C9.26987 8.18168 9.36272 8.0888 9.36272 7.97423C9.36272 7.85967 9.26987 7.76678 9.15528 7.76678Z" fill="#696969"/>
<path d="M6.91492 7.76678H6.08513C5.97057 7.76678 5.87769 7.85967 5.87769 7.97423C5.87769 8.0888 5.97057 8.18168 6.08513 8.18168H6.91492C7.02951 8.18168 7.12237 8.0888 7.12237 7.97423C7.12237 7.85967 7.02951 7.76678 6.91492 7.76678Z" fill="#696969"/>
<path d="M4.67444 7.76678H3.84465C3.73009 7.76678 3.63721 7.85967 3.63721 7.97423C3.63721 8.0888 3.73009 8.18168 3.84465 8.18168H4.67444C4.78901 8.18168 4.88189 8.0888 4.88189 7.97423C4.88189 7.85967 4.78901 7.76678 4.67444 7.76678Z" fill="#696969"/>
<path d="M2.43408 7.76678H1.6043C1.48973 7.76678 1.39685 7.85967 1.39685 7.97423C1.39685 8.0888 1.48973 8.18168 1.6043 8.18168H2.43408C2.54865 8.18168 2.64153 8.0888 2.64153 7.97423C2.64153 7.85967 2.54865 7.76678 2.43408 7.76678Z" fill="#696969"/>
<path d="M9.15528 9.26044H8.32549C8.2109 9.26044 8.11804 9.35332 8.11804 9.46788C8.11804 9.58245 8.2109 9.67533 8.32549 9.67533H9.15528C9.26987 9.67533 9.36272 9.58245 9.36272 9.46788C9.36272 9.35332 9.26987 9.26044 9.15528 9.26044Z" fill="#696969"/>
<path d="M11.3958 7.76678H10.566C10.4514 7.76678 10.3585 7.85967 10.3585 7.97423C10.3585 8.0888 10.4514 8.18168 10.566 8.18168H11.3958C11.5103 8.18168 11.6032 8.0888 11.6032 7.97423C11.6032 7.85967 11.5103 7.76678 11.3958 7.76678Z" fill="#696969"/>
<path d="M11.3958 9.26044H10.566C10.4514 9.26044 10.3585 9.35332 10.3585 9.46788C10.3585 9.58245 10.4514 9.67533 10.566 9.67533H11.3958C11.5103 9.67533 11.6032 9.58245 11.6032 9.46788C11.6032 9.35332 11.5103 9.26044 11.3958 9.26044Z" fill="#696969"/>
<path d="M6.91492 9.26044H6.08513C5.97057 9.26044 5.87769 9.35332 5.87769 9.46788C5.87769 9.58245 5.97057 9.67533 6.08513 9.67533H6.91492C7.02951 9.67533 7.12237 9.58245 7.12237 9.46788C7.12237 9.35332 7.02951 9.26044 6.91492 9.26044Z" fill="#696969"/>
<path d="M4.67444 9.26044H3.84465C3.73009 9.26044 3.63721 9.35332 3.63721 9.46788C3.63721 9.58245 3.73009 9.67533 3.84465 9.67533H4.67444C4.78901 9.67533 4.88189 9.58245 4.88189 9.46788C4.88189 9.35332 4.78901 9.26044 4.67444 9.26044Z" fill="#696969"/>
<path d="M2.43408 9.26044H1.6043C1.48973 9.26044 1.39685 9.35332 1.39685 9.46788C1.39685 9.58245 1.48973 9.67533 1.6043 9.67533H2.43408C2.54865 9.67533 2.64153 9.58245 2.64153 9.46788C2.64153 9.35332 2.54865 9.26044 2.43408 9.26044Z" fill="#696969"/>
<path d="M11.3958 4.7796H10.566C10.4514 4.7796 10.3585 4.87248 10.3585 4.98705C10.3585 5.10161 10.4514 5.1945 10.566 5.1945H11.3958C11.5103 5.1945 11.6032 5.10161 11.6032 4.98705C11.6032 4.87248 11.5103 4.7796 11.3958 4.7796Z" fill="#696969"/>
<path d="M9.15528 4.7796H8.32549C8.2109 4.7796 8.11804 4.87248 8.11804 4.98705C8.11804 5.10161 8.2109 5.1945 8.32549 5.1945H9.15528C9.26987 5.1945 9.36272 5.10161 9.36272 4.98705C9.36272 4.87248 9.26987 4.7796 9.15528 4.7796Z" fill="#696969"/>
<path d="M6.91492 4.7796H6.08513C5.97057 4.7796 5.87769 4.87248 5.87769 4.98705C5.87769 5.10161 5.97057 5.1945 6.08513 5.1945H6.91492C7.02951 5.1945 7.12237 5.10161 7.12237 4.98705C7.12237 4.87248 7.02951 4.7796 6.91492 4.7796Z" fill="#696969"/>
<path d="M4.67444 4.7796H3.84465C3.73009 4.7796 3.63721 4.87248 3.63721 4.98705C3.63721 5.10161 3.73009 5.1945 3.84465 5.1945H4.67444C4.78901 5.1945 4.88189 5.10161 4.88189 4.98705C4.88189 4.87248 4.78901 4.7796 4.67444 4.7796Z" fill="#696969"/>
<path d="M2.43408 4.7796H1.6043C1.48973 4.7796 1.39685 4.87248 1.39685 4.98705C1.39685 5.10161 1.48973 5.1945 1.6043 5.1945H2.43408C2.54865 5.1945 2.64153 5.10161 2.64153 4.98705C2.64153 4.87248 2.54865 4.7796 2.43408 4.7796Z" fill="#696969"/>
</g>
<defs>
<clipPath id="clip0_192_53">
<rect width="13" height="13" fill="white"/>
</clipPath>
</defs>
</svg>
