<svg width="11" height="11" viewBox="0 0 11 11" fill="none" xmlns="http://www.w3.org/2000/svg">
<g clip-path="url(#clip0_234_10)">
<path d="M5.5 0C2.46245 0 0 2.46245 0 5.5C0 8.53755 2.46245 11 5.5 11C8.53755 11 11 8.53758 11 5.5C11 2.46242 8.53755 0 5.5 0ZM6.41666 9.02383C6.41666 9.23129 6.24845 9.3995 6.04098 9.3995H5.01031C4.80284 9.3995 4.63463 9.23129 4.63463 9.02383V4.84184C4.63463 4.63437 4.80281 4.46617 5.01031 4.46617H6.04098C6.24845 4.46617 6.41666 4.63435 6.41666 4.84184V9.02383ZM5.5 3.75435C4.98494 3.75435 4.56739 3.3368 4.56739 2.82174C4.56739 2.30668 4.98494 1.88913 5.5 1.88913C6.01506 1.88913 6.43261 2.30668 6.43261 2.82174C6.43261 3.3368 6.01506 3.75435 5.5 3.75435Z" fill="white"/>
</g>
<defs>
<clipPath id="clip0_234_10">
<rect width="11" height="11" fill="white"/>
</clipPath>
</defs>
</svg>
