<svg width="247" height="247" viewBox="0 0 247 247" fill="none" xmlns="http://www.w3.org/2000/svg">
<path d="M180.211 162.375C158.632 193.773 115.682 201.733 84.2843 180.154" stroke="#1D262D" stroke-miterlimit="10"/>
<path d="M162.432 66.4485C193.83 88.0277 201.79 130.978 180.211 162.375" stroke="#1D262D" stroke-width="4" stroke-miterlimit="10"/>
<path d="M180.211 162.375C158.632 193.773 115.682 201.733 84.2843 180.154" stroke="#1D262D" stroke-miterlimit="10"/>
<path d="M162.432 66.4485C193.83 88.0277 201.79 130.978 180.211 162.375" stroke="#FFD0B1" stroke-width="4" stroke-miterlimit="10"/>
<path d="M185.461 165.983C161.889 200.281 114.974 208.976 80.6765 185.404" stroke="#1D262D" stroke-miterlimit="10"/>
<path d="M166.04 61.199C200.338 84.7712 209.033 131.685 185.461 165.983" stroke="#1D262D" stroke-width="4" stroke-miterlimit="10"/>
<path d="M185.461 165.983C161.889 200.281 114.974 208.976 80.6765 185.404" stroke="#1D262D" stroke-miterlimit="10"/>
<path d="M166.04 61.199C200.338 84.7712 209.033 131.685 185.461 165.983" stroke="#C344D7" stroke-width="4" stroke-miterlimit="10"/>
<path d="M190.688 169.576C165.13 206.762 114.27 216.189 77.0837 190.631" stroke="#1D262D" stroke-miterlimit="10"/>
<path d="M169.633 55.9715C206.819 81.5292 216.246 132.389 190.688 169.576" stroke="#FFD0B1" stroke-width="4" stroke-miterlimit="10"/>
<path d="M196.361 173.475C168.652 213.793 113.502 224.014 73.1846 196.305" stroke="#1D262D" stroke-miterlimit="10"/>
<path d="M173.532 50.2984C213.85 78.0079 224.071 133.158 196.361 173.475" stroke="#C344D7" stroke-width="4" stroke-miterlimit="10"/>
<path d="M66.3238 84.1027C87.903 52.7048 130.853 44.7445 162.251 66.3237" stroke="#1D262D" stroke-miterlimit="10"/>
<path d="M84.1028 180.029C52.7049 158.45 44.7446 115.501 66.3238 84.1027" stroke="#1D262D" stroke-width="4" stroke-miterlimit="10"/>
<path d="M66.3238 84.1027C87.903 52.7048 130.853 44.7445 162.251 66.3237" stroke="#1D262D" stroke-miterlimit="10"/>
<path d="M84.1028 180.029C52.7049 158.45 44.7446 115.501 66.3238 84.1027" stroke="#FFD0B1" stroke-width="4" stroke-miterlimit="10"/>
<path d="M61.0743 80.4949C84.6465 46.1971 131.561 37.5021 165.858 61.0742" stroke="#1D262D" stroke-miterlimit="10"/>
<path d="M80.4949 185.279C46.1972 161.707 37.5021 114.793 61.0743 80.4949" stroke="#1D262D" stroke-width="4" stroke-miterlimit="10"/>
<path d="M61.0743 80.4949C84.6465 46.1971 131.561 37.5021 165.858 61.0742" stroke="#1D262D" stroke-miterlimit="10"/>
<path d="M80.4949 185.279C46.1972 161.707 37.5021 114.793 61.0743 80.4949" stroke="#C344D7" stroke-width="4" stroke-miterlimit="10"/>
<path d="M55.8468 76.9021C81.4045 39.7155 132.265 30.2892 169.451 55.8468" stroke="#1D262D" stroke-miterlimit="10"/>
<path d="M76.9022 190.507C39.7156 164.949 30.2892 114.089 55.8469 76.9021" stroke="#FFD0B1" stroke-width="4" stroke-miterlimit="10"/>
<path d="M50.1737 73.003C77.8832 32.6855 133.033 22.4641 173.35 50.1736" stroke="#1D262D" stroke-miterlimit="10"/>
<path d="M73.0031 196.18C32.6855 168.47 22.4642 113.321 50.1737 73.0031" stroke="#C344D7" stroke-width="4" stroke-miterlimit="10"/>
</svg>
