<svg width="24" height="24" viewBox="0 0 24 24" fill="none" xmlns="http://www.w3.org/2000/svg">
<path fill-rule="evenodd" clip-rule="evenodd" d="M5.0769 5.92649C5.0769 4.38909 6.33969 3.14279 7.89742 3.14279H12C12.4248 3.14279 12.7692 3.48269 12.7692 3.90198C12.7692 4.32127 12.4248 4.66117 12 4.66117H7.89742C7.18936 4.66117 6.61537 5.22767 6.61537 5.92649V6.93874C6.61537 7.35803 6.27097 7.69793 5.84613 7.69793C5.4213 7.69793 5.0769 7.35803 5.0769 6.93874V5.92649ZM5.84613 16.3021C6.27097 16.3021 6.61537 16.642 6.61537 17.0613V18.0735C6.61537 18.7723 7.18936 19.3388 7.89742 19.3388H12C12.4248 19.3388 12.7692 19.6788 12.7692 20.098C12.7692 20.5173 12.4248 20.8572 12 20.8572H7.89742C6.33969 20.8572 5.0769 19.6109 5.0769 18.0735V17.0613C5.0769 16.642 5.4213 16.3021 5.84613 16.3021Z" fill="white"/>
<path fill-rule="evenodd" clip-rule="evenodd" d="M12.7692 4.78618C12.7692 3.90491 13.6592 3.29355 14.4966 3.59962L19.6248 5.47416C20.1277 5.658 20.4615 6.13139 20.4615 6.66071V17.3393C20.4615 17.8686 20.1277 18.342 19.6248 18.5258L14.4966 20.4004C13.6592 20.7065 12.7692 20.0951 12.7692 19.2138V4.78618ZM15.0309 2.17576C13.1887 1.5024 11.2308 2.84738 11.2308 4.78618V19.2138C11.2308 21.1526 13.1887 22.4976 15.0309 21.8242L20.1591 19.9497C21.2656 19.5452 22 18.5038 22 17.3393V6.66071C22 5.4962 21.2656 4.45475 20.1591 4.0503L15.0309 2.17576Z" fill="white"/>
<path fill-rule="evenodd" clip-rule="evenodd" d="M5.36444 9.43868C5.06404 9.14219 4.57699 9.14219 4.27658 9.43868L2.2253 11.4632C1.9249 11.7597 1.9249 12.2403 2.2253 12.5368L4.27658 14.5613C4.57699 14.8578 5.06404 14.8578 5.36444 14.5613C5.66484 14.2649 5.66484 13.7842 5.36444 13.4877L4.62632 12.7592H8.92308C9.34791 12.7592 9.69231 12.4193 9.69231 12C9.69231 11.5807 9.34791 11.2408 8.92308 11.2408H4.62632L5.36444 10.5123C5.66484 10.2158 5.66484 9.73516 5.36444 9.43868Z" fill="white"/>
</svg>
