<svg width="28" height="15" viewBox="0 0 28 15" fill="none" xmlns="http://www.w3.org/2000/svg">
<g clip-path="url(#clip0_26_586)">
<path fill-rule="evenodd" clip-rule="evenodd" d="M-5.01515e-05 7.46798C1.23131 9.05514 4.22386 11.2055 5.83523 12.202C7.91254 13.4804 10.9427 14.6612 13.9565 14.6721C18.5126 14.6884 22.7633 12.2453 25.9592 9.51017C26.8853 8.71389 27.1851 8.3402 28.0096 7.52223C27.7955 7.04559 25.8575 5.36636 25.306 4.91676C22.2867 2.46846 18.2663 0.290852 14.0312 0.29652C7.88541 0.29652 2.64954 4.65684 -0.000610352 7.46818L-5.01515e-05 7.46798ZM13.2555 2.54409C10.7821 2.96668 8.67265 5.21458 9.13321 8.26433C9.49725 10.7126 11.8528 12.9336 14.7972 12.4352C17.2545 12.0181 19.3905 9.71061 18.9035 6.65016C18.5074 4.21818 16.1625 2.05138 13.2555 2.5445V2.54409Z" fill="white"/>
<path fill-rule="evenodd" clip-rule="evenodd" d="M13.2503 4.05544C12.2598 4.29931 11.596 4.7867 11.1624 5.44763C10.6591 6.22225 10.3646 7.14836 10.6163 8.26961C10.9964 9.97589 12.6989 11.4493 14.8618 10.9184C16.4625 10.5284 17.8813 8.84386 17.4315 6.7152C17.0782 5.06318 15.3865 3.52488 13.2504 4.05565L13.2503 4.05544ZM13.5875 4.41839C12.0136 5.00337 12.8916 7.4409 14.4976 6.79094C15.986 6.18965 15.1722 3.82803 13.5875 4.41839Z" fill="white"/>
</g>
<defs>
<clipPath id="clip0_26_586">
<rect width="28" height="15" fill="white"/>
</clipPath>
</defs>
</svg>
