<svg width="278" height="279" viewBox="0 0 278 279" fill="none" xmlns="http://www.w3.org/2000/svg">
<path fill-rule="evenodd" clip-rule="evenodd" d="M83.7458 109.62C89.0705 99.343 103.29 97.2944 115.138 93.8107C126.991 90.3261 139.258 85.0785 152.133 89.5134C164.898 93.9104 173.195 105.956 181.285 116.595C188.653 126.286 194.291 136.625 196.383 147.71C198.552 159.196 197.884 170.467 193.312 180.307C188.302 191.091 181.925 202.844 169.444 205.691C157.108 208.506 143.922 198.941 130.848 194.557C118.11 190.286 102.689 190.591 93.9961 180.395C85.3243 170.223 90.3604 157.1 88.6097 145.012C86.8578 132.916 78.496 119.752 83.7458 109.62Z" stroke="url(#paint0_linear_124_193)"/>
<path fill-rule="evenodd" clip-rule="evenodd" d="M176.865 64.4992C188.068 65.2196 194.996 77.7347 202.377 87.4227C209.76 97.1133 218.887 106.459 219.466 120.415C220.04 134.251 212.096 147.076 205.351 159.119C199.206 170.09 191.858 179.702 182.569 186.294C172.945 193.122 162.504 197.196 151.965 197.001C140.414 196.788 127.5 195.694 120.469 185.146C113.52 174.721 117.474 158.334 116.778 144.212C116.099 130.454 110.321 116.081 116.451 103.655C122.565 91.2591 136.242 90.5214 146.56 83.8337C156.885 77.1416 165.819 63.789 176.865 64.4992Z" stroke="url(#paint1_linear_124_193)"/>
<path fill-rule="evenodd" clip-rule="evenodd" d="M123.998 203.187C116.883 188.966 90.9296 185.744 92.8266 169.126C94.8046 151.797 114.107 136.634 132.338 130.127C149.499 124.002 167.535 129.01 181.139 137.605C192.055 144.503 191.39 158.9 196.21 170.484C201.071 182.169 215.773 192.309 209.063 204.724C202.343 217.158 182.666 213.836 169.295 220.283C155.085 227.135 143.105 247.992 129.767 242.958C116.208 237.841 130.115 215.411 123.998 203.187Z" stroke="url(#paint2_linear_124_193)"/>
<path fill-rule="evenodd" clip-rule="evenodd" d="M93.7937 201.63C81.3944 191.941 56.1419 200.126 51.0678 184.449C45.7767 168.101 57.3484 146.305 71.4863 132.709C84.7943 119.911 103.48 116.699 119.553 118.589C132.449 120.104 137.748 133.269 146.947 141.578C156.227 149.959 173.946 152.761 172.857 166.73C171.766 180.72 152.259 186.139 142.578 197.61C132.289 209.799 129.807 233.569 115.442 234.752C100.839 235.956 104.452 209.959 93.7937 201.63Z" stroke="url(#paint3_linear_124_193)"/>
<path fill-rule="evenodd" clip-rule="evenodd" d="M90.5024 87.6055C102.947 77.1471 101.581 50.479 117.879 48.4513C134.875 46.3369 152.767 62.0273 162.155 78.691C170.993 94.3765 169.282 113.562 163.359 129.171C158.607 141.696 144.655 144.429 134.351 151.973C123.956 159.583 116.739 176.652 103.653 172.884C90.5464 169.109 90.3557 148.683 81.8598 136.857C72.8313 124.289 50.7249 117.251 53.2698 102.749C55.8569 88.0058 79.8051 96.5955 90.5024 87.6055Z" stroke="url(#paint4_linear_124_193)"/>
<defs>
<linearGradient id="paint0_linear_124_193" x1="83.6951" y1="109.567" x2="194.457" y2="180.452" gradientUnits="userSpaceOnUse">
<stop stop-color="#C344D7"/>
<stop offset="1" stop-color="#FFD0B1"/>
</linearGradient>
<linearGradient id="paint1_linear_124_193" x1="176.895" y1="64.4294" x2="155.039" y2="198.593" gradientUnits="userSpaceOnUse">
<stop stop-color="#C344D7"/>
<stop offset="1" stop-color="#FFD0B1"/>
</linearGradient>
<linearGradient id="paint2_linear_124_193" x1="103.907" y1="200.693" x2="197.304" y2="162.408" gradientUnits="userSpaceOnUse">
<stop stop-color="#C344D7"/>
<stop offset="1" stop-color="#FFD0B1"/>
</linearGradient>
<linearGradient id="paint3_linear_124_193" x1="74.2452" y1="207.967" x2="143.132" y2="132.509" gradientUnits="userSpaceOnUse">
<stop stop-color="#C344D7"/>
<stop offset="1" stop-color="#FFD0B1"/>
</linearGradient>
<linearGradient id="paint4_linear_124_193" x1="89.4444" y1="66.9611" x2="147.637" y2="147.294" gradientUnits="userSpaceOnUse">
<stop stop-color="#C344D7"/>
<stop offset="1" stop-color="#FFD0B1"/>
</linearGradient>
</defs>
</svg>
