<svg width="15" height="15" viewBox="0 0 15 15" fill="none" xmlns="http://www.w3.org/2000/svg">
<path d="M13.1852 2.0568H10.2216V0.54432C10.2216 0.243855 9.97773 0 9.67727 0H5.32271C5.02224 0 4.77839 0.243855 4.77839 0.54432V2.0568H1.81475C1.41413 2.0568 1.08899 2.38194 1.08899 2.78256C1.08899 3.18318 1.41413 3.50832 1.81475 3.50832H2.54087V14.0928C2.54087 14.5939 2.94693 15 3.44807 15H11.5519C12.053 15 12.4591 14.5939 12.4591 14.0928V3.50832H13.1852C13.5858 3.50832 13.911 3.18318 13.911 2.78256C13.911 2.38194 13.5855 2.0568 13.1852 2.0568ZM5.14127 12.9439C5.14127 13.2444 4.89741 13.4882 4.59695 13.4882C4.29648 13.4882 4.05263 13.2444 4.05263 12.9439V5.32345C4.05263 5.02298 4.29648 4.77913 4.59695 4.77913C4.89741 4.77913 5.14127 5.02298 5.14127 5.32345V12.9439ZM8.04431 12.9439C8.04431 13.2444 7.80045 13.4882 7.49999 13.4882C7.19952 13.4882 6.95567 13.2444 6.95567 12.9439V5.32345C6.95567 5.02298 7.19952 4.77913 7.49999 4.77913C7.80045 4.77913 8.04431 5.02298 8.04431 5.32345V12.9439ZM9.13295 2.0568H5.86703V1.08864H9.13295V2.0568ZM10.9473 12.9439C10.9473 13.2444 10.7035 13.4882 10.403 13.4882C10.1026 13.4882 9.85871 13.2444 9.85871 12.9439V5.32345C9.85871 5.02298 10.1026 4.77913 10.403 4.77913C10.7035 4.77913 10.9473 5.02298 10.9473 5.32345V12.9439Z" fill="#D05261"/>
</svg>
